<svg xmlns="http://www.w3.org/2000/svg" width="600" height="1000" viewBox="0 0 600 1000">
  <defs>
    <clipPath id="r0c0"><rect x="0" y="0" width="200" height="200"/></clipPath>
    <clipPath id="r0c1"><rect x="200" y="0" width="200" height="200"/></clipPath>
    <clipPath id="r0c2"><rect x="400" y="0" width="200" height="200"/></clipPath>
    <clipPath id="r1c0"><rect x="0" y="200" width="200" height="200"/></clipPath>
    <clipPath id="r1c1"><rect x="200" y="200" width="200" height="200"/></clipPath>
    <clipPath id="r1c2"><rect x="400" y="200" width="200" height="200"/></clipPath>
    <clipPath id="rows23"><rect x="0" y="400" width="600" height="400"/></clipPath>
    <clipPath id="r3c1"><rect x="200" y="600" width="200" height="200"/></clipPath>
    <clipPath id="right23"><rect x="400" y="400" width="200" height="400"/></clipPath>
    <clipPath id="r4c0"><rect x="0" y="800" width="200" height="200"/></clipPath>
    <clipPath id="r4c1"><rect x="200" y="800" width="200" height="200"/></clipPath>
    <clipPath id="r4c2"><rect x="400" y="800" width="200" height="200"/></clipPath>
  </defs>

  <!-- ROW 0 -->
  <circle cx="100" cy="100" r="100" fill="#006838"/>
  <circle cx="200" cy="0" r="200" fill="#58595B" clip-path="url(#r0c1)"/>
  <circle cx="400" cy="200" r="200" fill="#C7C8CA" clip-path="url(#r0c2)"/>

  <!-- ROW 1 -->
  <circle cx="200" cy="200" r="200" fill="#58595B" clip-path="url(#r1c0)"/>
  <circle cx="200" cy="400" r="200" fill="#006838" clip-path="url(#r1c1)"/>
  <circle cx="400" cy="200" r="200" fill="#58595B" clip-path="url(#r1c2)"/>

  <!-- ROWS 2-3 -->
  <circle cx="200" cy="600" r="200" fill="#C7C8CA" clip-path="url(#rows23)"/>
  <circle cx="400" cy="800" r="200" fill="#58595B" clip-path="url(#r3c1)"/>
  <circle cx="600" cy="600" r="200" fill="#006838" clip-path="url(#right23)"/>

  <!-- ROW 4 -->
  <circle cx="90" cy="920" r="110" fill="#C7C8CA" clip-path="url(#r4c0)"/>
  <circle cx="200" cy="800" r="200" fill="#006838" clip-path="url(#r4c1)"/>
  <circle cx="530" cy="930" r="100" fill="#C7C8CA" clip-path="url(#r4c2)"/>
</svg>
