<svg width="24" height="24" viewBox="0 0 24 24" fill="none" xmlns="http://www.w3.org/2000/svg">
  <path d="M4.5 16.5C4.5 16.5 5.5 15.5 8 15.5C10.5 15.5 11.5 17 14 17C16.5 17 17.5 16 17.5 16M6 21L8.5 18.5M18 6L8.5 15.5M15 3C15 3 18.321 3.679 20.5 5.857C22.679 8.036 23.358 11.357 23.358 11.357C23.358 11.357 21.179 9.179 18.5 9C15.821 8.821 14 10.5 14 10.5L9.5 15C9.5 15 9.679 13.179 9.5 10.5C9.321 7.821 7.143 5.643 7.143 5.643C7.143 5.643 10.464 6.321 12.643 8.5C14.821 10.679 15.5 14 15.5 14" stroke="currentColor" stroke-width="1.5" stroke-linecap="round" stroke-linejoin="round"/>
  <circle cx="10.5" cy="10.5" r="1.5" fill="currentColor"/>
</svg>
